<svg xmlns="http://www.w3.org/2000/svg" width="37" height="37" viewBox="0 0 37 37" fill="none">
    <path d="M36.3333 36H4.44445C3.35546 36 2.81097 36 2.39503 35.7881C2.02916 35.6016 1.7317 35.3042 1.54528 34.9383C1.33334 34.5224 1.33334 33.9779 1.33334 32.8889V1M34.3889 10.7222L26.7689 18.8552C26.4801 19.1634 26.3357 19.3175 26.1615 19.3972C26.0077 19.4675 25.8383 19.4965 25.6699 19.4813C25.4792 19.4641 25.2917 19.3668 24.9169 19.1721L18.5831 15.8834C18.2083 15.6888 18.0209 15.5915 17.8301 15.5743C17.6617 15.5591 17.4923 15.5881 17.3385 15.6584C17.1643 15.7381 17.0199 15.8922 16.7311 16.2004L9.11112 24.3333" stroke="#CEE1E7" stroke-opacity="0.3" stroke-linecap="round" stroke-linejoin="round"/>
</svg>