<svg xmlns="http://www.w3.org/2000/svg" width="37" height="37" viewBox="0 0 37 37" fill="none">
    <path d="M15.7289 2.84111H9.83734C6.74398 2.84111 5.1973 2.84111 4.01579 3.44312C2.97651 3.97266 2.13155 4.81762 1.60201 5.85691C1 7.03841 1 8.58509 1 11.6784V27.1438C1 30.2371 1 31.7838 1.60201 32.9653C2.13155 34.0046 2.97651 34.8496 4.01579 35.3791C5.1973 35.9811 6.74398 35.9811 9.83734 35.9811H25.3027C28.396 35.9811 29.9427 35.9811 31.1242 35.3791C32.1635 34.8496 33.0085 34.0046 33.538 32.9653C34.14 31.7838 34.14 30.2371 34.14 27.1438V21.2522M17.57 12.0467H24.9345V19.4111M24.0139 3.76167V1M31.2667 5.71446L33.2195 3.76167M33.2383 12.9672H36M1 21.8913C2.20029 22.0766 3.43003 22.1728 4.68222 22.1728C12.758 22.1728 19.8996 18.1731 24.2342 12.0467" stroke="#CEE1E7" stroke-opacity="0.3" stroke-linecap="round" stroke-linejoin="round"/>
</svg>