<svg xmlns="http://www.w3.org/2000/svg" width="37" height="37" viewBox="0 0 37 37" fill="none">
    <path d="M4.88889 36L4.88889 24.3333M4.88889 24.3333C7.03666 24.3333 8.77778 22.5922 8.77778 20.4444C8.77778 18.2967 7.03666 16.5556 4.88889 16.5556C2.74111 16.5556 1 18.2967 1 20.4444C1 22.5922 2.74111 24.3333 4.88889 24.3333ZM4.88889 8.77778V1M18.5 36V24.3333M18.5 8.77778V1M18.5 8.77778C16.3522 8.77778 14.6111 10.5189 14.6111 12.6667C14.6111 14.8144 16.3522 16.5556 18.5 16.5556C20.6478 16.5556 22.3889 14.8144 22.3889 12.6667C22.3889 10.5189 20.6478 8.77778 18.5 8.77778ZM32.1111 36V28.2222M32.1111 28.2222C34.2589 28.2222 36 26.4811 36 24.3333C36 22.1856 34.2589 20.4444 32.1111 20.4444C29.9633 20.4444 28.2222 22.1856 28.2222 24.3333C28.2222 26.4811 29.9633 28.2222 32.1111 28.2222ZM32.1111 12.6667V1" stroke="#CEE1E7" stroke-opacity="0.3" stroke-linecap="round" stroke-linejoin="round"/>
</svg>